<?xml version="1.0" encoding="UTF-8" standalone="no"?>
<svg
   xmlns:dc="http://purl.org/dc/elements/1.1/"
   xmlns:cc="http://creativecommons.org/ns#"
   xmlns:rdf="http://www.w3.org/1999/02/22-rdf-syntax-ns#"
   xmlns:svg="http://www.w3.org/2000/svg"
   xmlns="http://www.w3.org/2000/svg"
   xmlns:sodipodi="http://sodipodi.sourceforge.net/DTD/sodipodi-0.dtd"
   xmlns:inkscape="http://www.inkscape.org/namespaces/inkscape"
   version="1.1"
   width="3000"
   height="911.17694"
   viewBox="0 0 2999.9999 911.17692"
   id="svg160"
   sodipodi:docname="logo.svg"
   inkscape:version="0.92.3 (2405546, 2018-03-11)">
  <metadata
     id="metadata166">
    <rdf:RDF>
      <cc:Work
         rdf:about="">
        <dc:format>image/svg+xml</dc:format>
        <dc:type
           rdf:resource="http://purl.org/dc/dcmitype/StillImage" />
        <dc:title></dc:title>
      </cc:Work>
    </rdf:RDF>
  </metadata>
  <defs
     id="defs164" />
  <sodipodi:namedview
     pagecolor="#ffffff"
     bordercolor="#666666"
     borderopacity="1"
     objecttolerance="10"
     gridtolerance="10"
     guidetolerance="10"
     inkscape:pageopacity="0"
     inkscape:pageshadow="2"
     inkscape:window-width="1331"
     inkscape:window-height="645"
     id="namedview162"
     showgrid="false"
     inkscape:zoom="0.35040932"
     inkscape:cx="591.90662"
     inkscape:cy="464.11121"
     inkscape:window-x="571"
     inkscape:window-y="384"
     inkscape:window-maximized="0"
     inkscape:current-layer="svg160"
     fit-margin-top="0"
     fit-margin-left="0"
     fit-margin-right="0"
     fit-margin-bottom="0" />
  <g
     transform="matrix(8.1008134,0,0,8.1008134,3.7227742e-6,-9.6306621e-5)"
     id="g158">
    <defs
       id="SvgjsDefs1735" />
    <g
       id="SvgjsG1736"
       featureKey="symbolFeature-0"
       transform="matrix(32.214973,0,0,32.214973,-22.708335,-24.29149)"
       style="fill:#53354a">
      <title
         id="title3">abstract</title>
      <path
         d="M 3.93809,2.38489 C 3.94696,2.49864 3.91488,2.52934 3.82156,2.5143 A 0.58238,0.58238 0 0 1 3.75251,2.6035 0.08164,0.08164 0 0 1 3.63851,2.50759 C 3.65108,2.45659 3.6906,2.43926 3.7686,2.45278 A 0.32469,0.32469 0 0 1 3.779,2.41 0.3666,0.3666 0 0 1 3.80043,2.369 L 3.79833,2.3607 C 3.76585,2.3304 3.7435,2.29709 3.76617,2.25094 A 0.09213,0.09213 0 0 1 3.87263,2.20578 c 0.06429,0.00693 0.12848,0.0147 0.19264,0.02276 A 0.15217,0.15217 0 0 1 4.10093,2.23786 0.0825,0.0825 0 0 1 4.06445,2.39851 C 4.043,2.39681 4.0218,2.39225 4.00039,2.38986 3.98085,2.38771 3.96117,2.38669 3.93809,2.38489 Z"
         id="path5"
         inkscape:connector-curvature="0" />
      <path
         d="M 3.04423,2.27006 C 2.97458,2.26894 2.93258,2.22414 2.94878,2.17628 2.97731,2.09199 3.01518,2.01083 3.04996,1.92871 A 0.04495,0.04495 0 0 1 3.06915,1.90923 0.04051,0.04051 0 0 0 3.092,1.85717 0.07907,0.07907 0 0 1 3.14782,1.76334 0.08615,0.08615 0 0 1 3.24718,1.80312 0.08292,0.08292 0 0 1 3.21729,1.91255 0.04213,0.04213 0 0 0 3.19429,1.96495 0.06716,0.06716 0 0 1 3.19079,2.00123 C 3.16348,2.07161 3.13852,2.14329 3.10504,2.21069 3.0912,2.2386 3.05819,2.257 3.04423,2.27006 Z"
         id="path7"
         inkscape:connector-curvature="0" />
      <path
         d="M 3.74107,1.864 A 0.09148,0.09148 0 0 1 3.65092,1.80625 0.06826,0.06826 0 0 0 3.61058,1.77419 0.08584,0.08584 0 0 1 3.53544,1.68853 a 0.081,0.081 0 0 1 0.06938,-0.08 c 0.044,-0.00765 0.07421,0.01356 0.09582,0.06028 A 0.05094,0.05094 0 0 0 3.73903,1.69289 C 3.79585,1.69237 3.8526,1.68662 3.90944,1.68411 a 0.082,0.082 0 0 1 0.09384,0.069 0.08006,0.08006 0 0 1 -0.07335,0.09418 C 3.86624,1.85671 3.80146,1.85893 3.74107,1.864 Z"
         id="path9"
         inkscape:connector-curvature="0" />
      <path
         d="M 3.41469,3.33325 C 3.38355,3.30042 3.354,3.27315 3.32914,3.24212 A 0.089,0.089 0 0 1 3.33291,3.11692 C 3.36773,3.08624 3.41352,3.09414 3.4561,3.13351 A 1.02225,1.02225 0 0 0 3.56333,3.22057 0.086,0.086 0 0 1 3.57548,3.37219 0.06592,0.06592 0 0 0 3.5569,3.4067 0.08214,0.08214 0 0 1 3.49235,3.48217 0.07871,0.07871 0 0 1 3.40616,3.4514 0.08075,0.08075 0 0 1 3.40708,3.34863 Z"
         id="path11"
         inkscape:connector-curvature="0" />
      <path
         d="m 2.14336,0.82741 a 0.08781,0.08781 0 0 1 0.081,0.07561 c 0.01084,0.048 0.01677,0.09716 0.029,0.14475 A 0.1012,0.1012 0 0 0 2.28582,1.09832 0.0843,0.0843 0 0 1 2.32,1.19967 0.07777,0.07777 0 0 1 2.23706,1.25361 0.081,0.081 0 0 1 2.1577,1.18268 0.0568,0.0568 0 0 0 2.142,1.15162 C 2.05391,1.08286 2.06267,0.98337 2.06259,0.88962 2.06251,0.84826 2.10115,0.83 2.14336,0.82741 Z"
         id="path13"
         inkscape:connector-curvature="0" />
      <path
         d="M 3.21989,3.75632 C 3.20089,3.77793 3.18535,3.81064 3.16182,3.81815 A 0.1266,0.1266 0 0 1 3.07342,3.80484 0.1534,0.1534 0 0 1 3.02217,3.7414 1.69417,1.69417 0 0 1 2.93873,3.5724 0.07926,0.07926 0 0 1 2.97634,3.46624 0.08113,0.08113 0 0 1 3.08613,3.50403 c 0.01151,0.018 0.01956,0.03825 0.03008,0.057 0.02328,0.04143 0.04769,0.08223 0.07052,0.1239 0.01083,0.01967 0.01911,0.04082 0.03316,0.07139 z"
         id="path15"
         inkscape:connector-curvature="0" />
      <path
         d="m 3.87673,2.80355 c -0.00134,0.072 -0.0524,0.11373 -0.10723,0.096 A 1.22856,1.22856 0 0 1 3.57937,2.81821 0.07819,0.07819 0 0 1 3.54254,2.71167 0.08365,0.08365 0 0 1 3.65654,2.67252 1.48244,1.48244 0 0 1 3.82528,2.74657 0.20206,0.20206 0 0 1 3.87673,2.80355 Z"
         id="path17"
         inkscape:connector-curvature="0" />
      <path
         d="M 2.32244,3.564 C 2.32973,3.52236 2.33444,3.47942 2.34527,3.43811 A 0.07338,0.07338 0 0 1 2.43017,3.3825 0.07164,0.07164 0 0 1 2.50157,3.45427 C 2.50383,3.5247 2.50328,3.59546 2.49888,3.66577 A 0.08,0.08 0 0 1 2.34473,3.68334 0.81561,0.81561 0 0 1 2.32244,3.564 Z"
         id="path19"
         inkscape:connector-curvature="0" />
      <path
         d="M 1.93229,4.06809 C 1.93877,4.037 1.94935,3.98267 1.96184,3.9288 A 0.14866,0.14866 0 0 1 1.98116,3.887 0.08079,0.08079 0 0 1 2.08016,3.84918 0.07974,0.07974 0 0 1 2.13085,3.94233 Q 2.11549,4.03097 2.09674,4.11902 A 0.08377,0.08377 0 0 1 2.00049,4.19174 C 1.95546,4.18467 1.92927,4.14685 1.93229,4.06809 Z"
         id="path21"
         inkscape:connector-curvature="0" />
      <path
         d="m 1.46327,2.74936 a 0.29089,0.29089 0 0 1 -0.03963,0.054 C 1.38218,2.84187 1.33717,2.87655 1.29392,2.91315 A 0.07834,0.07834 0 0 1 1.19954,2.92427 0.07282,0.07282 0 0 1 1.16024,2.83846 0.14731,0.14731 0 0 1 1.20024,2.76815 0.98636,0.98636 0 0 1 1.34165,2.6653 C 1.39828,2.6319 1.4647,2.672 1.46327,2.74936 Z"
         id="path23"
         inkscape:connector-curvature="0" />
      <path
         d="M 1.65772,1.18092 C 1.65598,1.25545 1.58797,1.29717 1.5375,1.26404 A 0.35307,0.35307 0 0 1 1.39687,1.09704 0.08428,0.08428 0 0 1 1.43373,0.98916 0.0876,0.0876 0 0 1 1.54336,1.02111 C 1.57063,1.0563 1.60024,1.08973 1.62649,1.12564 a 0.43149,0.43149 0 0 1 0.03123,0.05528 z"
         id="path25"
         inkscape:connector-curvature="0" />
      <path
         d="m 3.29272,2.60068 c -0.05924,0.059 -0.10941,0.067 -0.14735,0.02558 A 0.08346,0.08346 0 0 1 3.15031,2.5065 C 3.19303,2.46881 3.24247,2.48127 3.29354,2.5426 3.35644,2.4848 3.40412,2.4776 3.44209,2.52011 A 0.086,0.086 0 0 1 3.43372,2.64024 C 3.39131,2.67622 3.34194,2.663 3.29272,2.60068 Z"
         id="path27"
         inkscape:connector-curvature="0" />
      <path
         d="M 1.09668,1.42182 C 1.12916,1.42907 1.1765,1.43695 1.22214,1.45054 A 0.08257,0.08257 0 1 1 1.18351,1.61109 C 1.14086,1.60498 1.09832,1.59709 1.05643,1.58709 A 0.08551,0.08551 0 0 1 0.9826,1.49091 C 0.989,1.44673 1.02886,1.41875 1.09668,1.42182 Z"
         id="path29"
         inkscape:connector-curvature="0" />
      <path
         d="M 2.61472,1.59283 C 2.60306,1.67174 2.57184,1.70667 2.51841,1.70059 A 0.08639,0.08639 0 0 1 2.44334,1.60618 C 2.45173,1.54883 2.49202,1.52834 2.56542,1.53773 a 0.70463,0.70463 0 0 1 0.067,-0.09494 C 2.64268,1.43219 2.67077,1.43312 2.68895,1.43707 A 0.08152,0.08152 0 0 1 2.74882,1.53658 C 2.7366,1.58883 2.69863,1.60476 2.61472,1.59283 Z"
         id="path31"
         inkscape:connector-curvature="0" />
      <path
         d="M 2.97015,1.61331 C 2.90215,1.56778 2.88493,1.51792 2.91957,1.4724 A 0.0856,0.0856 0 0 1 3.0429,1.46077 0.088,0.088 0 0 1 3.03048,1.5973 0.4952,0.4952 0 0 1 3.08713,1.69041 0.08284,0.08284 0 0 1 3.0676,1.75299 0.07922,0.07922 0 0 1 2.95229,1.75944 C 2.90884,1.71961 2.91387,1.67175 2.97015,1.61331 Z"
         id="path33"
         inkscape:connector-curvature="0" />
      <path
         d="M 2.91718,1.24228 C 3.00031,1.25342 3.03192,1.27887 3.03012,1.33322 A 0.0799,0.0799 0 0 1 2.95586,1.41267 C 2.90269,1.41777 2.87386,1.39002 2.85944,1.32002 2.76815,1.30134 2.74114,1.27933 2.74376,1.22577 A 0.08144,0.08144 0 0 1 2.81547,1.14848 c 0.05208,-0.00621 0.07907,0.01868 0.10171,0.0938 z"
         id="path35"
         inkscape:connector-curvature="0" />
      <path
         d="M 1.6833,3.42259 A 1.59342,1.59342 0 0 1 1.75866,3.26238 0.07264,0.07264 0 0 1 1.85711,3.23733 0.08072,0.08072 0 0 1 1.89822,3.33911 C 1.88547,3.38148 1.87183,3.42358 1.858,3.46561 A 0.08255,0.08255 0 0 1 1.76436,3.52323 0.08607,0.08607 0 0 1 1.6952,3.428 Z"
         id="path37"
         inkscape:connector-curvature="0" />
      <path
         d="M 2.87425,2.43477 A 0.18164,0.18164 0 0 1 2.83367,2.48757 1.00022,1.00022 0 0 1 2.69646,2.56344 0.07721,0.07721 0 0 1 2.624,2.42708 1.12393,1.12393 0 0 1 2.77227,2.35208 C 2.82263,2.33172 2.87293,2.368 2.87425,2.43477 Z"
         id="path39"
         inkscape:connector-curvature="0" />
      <path
         d="m 3.37115,2.234 a 0.205,0.205 0 0 0 0.0313,-0.02086 0.08714,0.08714 0 0 1 0.11,-0.01345 0.07994,0.07994 0 0 1 0.03144,0.098 0.08294,0.08294 0 0 1 -0.09164,0.05479 0.07175,0.07175 0 0 0 -0.046,0.0166 A 0.089,0.089 0 0 1 3.29681,2.38799 0.08056,0.08056 0 0 1 3.25872,2.29245 C 3.26937,2.2517 3.30622,2.23017 3.37115,2.234 Z"
         id="path41"
         inkscape:connector-curvature="0" />
      <path
         d="M 3.5805,1.33689 C 3.51768,1.33615 3.47115,1.27369 3.50173,1.22721 a 0.56527,0.56527 0 0 1 0.13,-0.13115 0.06158,0.06158 0 0 1 0.0888,0.02249 0.10522,0.10522 0 0 1 0.01015,0.08757 0.785,0.785 0 0 1 -0.118,0.12042 C 3.60371,1.33484 3.58713,1.33493 3.5805,1.33689 Z"
         id="path43"
         inkscape:connector-curvature="0" />
      <path
         d="M 1.06915,2.14389 A 0.10312,0.10312 0 0 1 1.15286,2.2128 0.07073,0.07073 0 0 1 1.1145,2.30227 0.81049,0.81049 0 0 1 0.97593,2.35095 0.07989,0.07989 0 0 1 0.91137,2.21206 1.27427,1.27427 0 0 1 1.06915,2.14389 Z"
         id="path45"
         inkscape:connector-curvature="0" />
      <path
         d="M 0.7049,2.684 C 0.71803,2.62447 0.8089,2.5212 0.86101,2.51981 A 0.09667,0.09667 0 0 1 0.93493,2.55098 0.09572,0.09572 0 0 1 0.93908,2.63462 0.39185,0.39185 0 0 1 0.84408,2.74509 0.09586,0.09586 0 0 1 0.76034,2.75293 C 0.73637,2.74178 0.72294,2.70789 0.7049,2.684 Z"
         id="path47"
         inkscape:connector-curvature="0" />
      <path
         d="M 2.75019,3.06664 A 0.09475,0.09475 0 0 1 2.67019,3.00776 0.084,0.084 0 0 1 2.68944,2.91423 0.57079,0.57079 0 0 1 2.73327,2.85794 c 0.022,-0.0185 0.0499,-0.04347 0.07411,-0.04228 A 0.102,0.102 0 0 1 2.88122,2.86303 0.1169,0.1169 0 0 1 2.87099,2.94754 0.25469,0.25469 0 0 1 2.81499,3.0228 0.39952,0.39952 0 0 1 2.75019,3.06664 Z"
         id="path49"
         inkscape:connector-curvature="0" />
      <path
         d="m 3.82264,3.67594 c 6.1e-4,0.0666 -0.06,0.11309 -0.10894,0.08576 A 0.41084,0.41084 0 0 1 3.59936,3.65936 0.06935,0.06935 0 0 1 3.61762,3.56044 0.07428,0.07428 0 0 1 3.71909,3.55839 0.63084,0.63084 0 0 1 3.79786,3.62917 0.17564,0.17564 0 0 1 3.82264,3.67594 Z"
         id="path51"
         inkscape:connector-curvature="0" />
      <path
         d="M 1.1285,3.1105 A 0.0795,0.0795 0 0 1 1.19295,3.23691 0.38071,0.38071 0 0 1 1.09782,3.32877 0.07982,0.07982 0 0 1 0.9774,3.258 0.203,0.203 0 0 1 1.1285,3.1105 Z"
         id="path53"
         inkscape:connector-curvature="0" />
      <path
         d="M 2.80718,0.99639 A 0.84253,0.84253 0 0 1 2.85162,0.87716 0.07955,0.07955 0 0 1 2.95527,0.84253 0.08249,0.08249 0 0 1 2.9995,0.94668 C 2.99192,0.97481 2.9845,1.00305 2.97493,1.03055 A 0.08212,0.08212 0 0 1 2.87814,1.08836 0.09974,0.09974 0 0 1 2.80718,0.99639 Z"
         id="path55"
         inkscape:connector-curvature="0" />
      <path
         d="M 0.92686,1.75567 A 0.28172,0.28172 0 0 1 0.97026,1.76081 0.07715,0.07715 0 0 1 1.03609,1.83865 0.072,0.072 0 0 1 0.97473,1.919 0.29155,0.29155 0 0 1 0.86156,1.91343 0.07709,0.07709 0 0 1 0.80588,1.816 C 0.81711,1.77088 0.8534,1.7506 0.92686,1.75567 Z"
         id="path57"
         inkscape:connector-curvature="0" />
      <path
         d="M 3.035,4.17278 A 0.26641,0.26641 0 0 1 2.9752,4.23768 0.07058,0.07058 0 0 1 2.88443,4.21474 0.14725,0.14725 0 0 1 2.85412,4.07241 0.116,0.116 0 0 1 2.92143,4.01432 0.066,0.066 0 0 1 3.00289,4.05818 1.02355,1.02355 0 0 1 3.035,4.17278 Z"
         id="path59"
         inkscape:connector-curvature="0" />
      <path
         d="M 2.22989,2.38324 C 2.20615,2.41007 2.19072,2.44193 2.16701,2.4503 A 0.10164,0.10164 0 0 1 2.08333,2.43775 0.23948,0.23948 0 0 1 2.02123,2.34836 0.077,0.077 0 0 1 2.05767,2.24936 0.07554,0.07554 0 0 1 2.15792,2.26771 1.20191,1.20191 0 0 1 2.22989,2.38324 Z"
         id="path61"
         inkscape:connector-curvature="0" />
      <path
         d="m 1.50688,1.63349 c 0.06894,6.7e-4 0.12046,0.04235 0.11864,0.096 A 0.0816,0.0816 0 0 1 1.54009,1.80777 C 1.46643,1.80731 1.41783,1.7715 1.41738,1.71734 a 0.08256,0.08256 0 0 1 0.0895,-0.08385 z"
         id="path63"
         inkscape:connector-curvature="0" />
      <path
         d="M 4.01443,3.01581 C 4.08308,3.01968 4.13714,3.06732 4.13289,3.12019 A 0.08345,0.08345 0 0 1 4.03954,3.19519 0.11444,0.11444 0 0 1 3.92594,3.09494 0.08016,0.08016 0 0 1 4.01443,3.01581 Z"
         id="path65"
         inkscape:connector-curvature="0" />
      <path
         d="M 2.454,2.29981 A 0.11766,0.11766 0 0 1 2.57263,2.20036 0.08168,0.08168 0 0 1 2.65142,2.28522 0.1254,0.1254 0 0 1 2.53392,2.38815 0.08252,0.08252 0 0 1 2.454,2.29981 Z"
         id="path67"
         inkscape:connector-curvature="0" />
      <circle
         cx="2.4342401"
         cy="2.7890501"
         r="0.083099999"
         transform="rotate(-87.94878,2.4342446,2.7890431)"
         id="circle69" />
      <circle
         cx="2.2137699"
         cy="2.5492401"
         r="0.083530001"
         transform="rotate(-0.22141,2.2127997,2.5480581)"
         id="circle71" />
      <circle
         cx="2.16043"
         cy="1.86976"
         r="0.083779998"
         transform="rotate(-89.11123,2.1604293,1.869753)"
         id="circle73" />
      <circle
         cx="2.2818899"
         cy="1.44231"
         r="0.083789997"
         transform="rotate(-0.10711,2.2827826,1.4410819)"
         id="circle75" />
      <circle
         cx="1.4372801"
         cy="3.1826899"
         r="0.083769999"
         transform="rotate(-89.09359,1.4372778,3.1826895)"
         id="circle77" />
      <circle
         cx="2.3734601"
         cy="1.82991"
         r="0.08326"
         transform="rotate(-88.4068,2.3734581,1.8299063)"
         id="circle79" />
      <circle
         cx="3.39872"
         cy="1.33675"
         r="0.083939999"
         transform="rotate(-2.1624,3.3986515,1.3368003)"
         id="circle81" />
      <circle
         cx="3.3857901"
         cy="1.6024801"
         r="0.08348"
         transform="rotate(-85.77303,3.385787,1.6024775)"
         id="circle83" />
      <circle
         cx="1.9640599"
         cy="1.49335"
         r="0.083230004"
         transform="rotate(-87.3785,1.9640585,1.4933495)"
         id="circle85" />
      <circle
         cx="2.6933501"
         cy="3.36185"
         r="0.083360001"
         transform="rotate(-88.23624,2.6933468,3.3618522)"
         id="circle87" />
      <circle
         cx="4.2049098"
         cy="1.96277"
         r="0.083580002"
         transform="rotate(-87.70837,4.2049116,1.9627745)"
         id="circle89" />
      <circle
         cx="3.09992"
         cy="3.1819501"
         r="0.083580002"
         transform="rotate(-0.85815,3.0996293,3.18206)"
         id="circle91" />
      <circle
         cx="2.1806901"
         cy="3.44856"
         r="0.083700001"
         id="circle93" />
      <circle
         cx="1.87418"
         cy="1.99094"
         r="0.083449997"
         transform="rotate(-1.94617,1.8742814,1.9908732)"
         id="circle95" />
      <circle
         cx="1.4279799"
         cy="2.2300401"
         r="0.083659999"
         transform="rotate(-0.76711,1.4281326,2.2301735)"
         id="circle97" />
      <circle
         cx="3.3724501"
         cy="2.0831201"
         r="0.08337"
         transform="matrix(0.99999,-0.00499,0.00499,0.99999,-0.01035,0.01685)"
         id="circle99" />
      <circle
         cx="2.9003999"
         cy="2.7093101"
         r="0.083559997"
         transform="rotate(-0.65034,2.9008407,2.7088959)"
         id="circle101" />
      <circle
         cx="3.1665599"
         cy="1.2441"
         r="0.08337"
         transform="rotate(-89.72735,3.1665602,1.2441059)"
         id="circle103" />
      <circle
         cx="1.88146"
         cy="2.8620601"
         r="0.083109997"
         transform="rotate(-89.38877,1.8814635,2.8620654)"
         id="circle105" />
      <circle
         cx="3.6724401"
         cy="2.0239899"
         r="0.083350003"
         transform="rotate(-88.83042,3.6724383,2.0239897)"
         id="circle107" />
      <circle
         cx="2.58024"
         cy="3.0883"
         r="0.083509997"
         transform="rotate(-89.63866,2.5802394,3.0882984)"
         id="circle109" />
      <circle
         cx="2.61449"
         cy="1.26969"
         r="0.083300002"
         transform="rotate(-87.49184,2.6144932,1.269685)"
         id="circle111" />
      <circle
         cx="1.40163"
         cy="3.66067"
         r="0.083109997"
         transform="rotate(-89.43882,1.4016266,3.6606743)"
         id="circle113" />
      <circle
         cx="2.64013"
         cy="3.9875"
         r="0.083729997"
         transform="rotate(-89.16655,2.6401313,3.9875)"
         id="circle115" />
      <circle
         cx="2.51387"
         cy="0.83732003"
         r="0.083279997"
         transform="rotate(-1.18361,2.514053,0.83733837)"
         id="circle117" />
      <circle
         cx="2.8088701"
         cy="2.0891299"
         r="0.083839998"
         transform="rotate(-1.27774,2.8086784,2.0892662)"
         id="circle119" />
      <circle
         cx="1.75508"
         cy="2.5555"
         r="0.083800003"
         transform="rotate(-0.08385,1.7542436,2.5568745)"
         id="circle121" />
      <circle
         cx="2.34079"
         cy="2.1362801"
         r="0.083520003"
         transform="rotate(-88.8736,2.3407901,2.1362774)"
         id="circle123" />
      <circle
         cx="1.8089"
         cy="2.20983"
         r="0.083310001"
         transform="rotate(-89.22232,1.808904,2.2098259)"
         id="circle125" />
      <circle
         cx="3.33272"
         cy="0.89709002"
         r="0.083230004"
         transform="rotate(-89.0193,3.3327213,0.89709115)"
         id="circle127" />
      <circle
         cx="3.4381101"
         cy="1.9094599"
         r="0.083400004"
         transform="rotate(-1.09461,3.4382149,1.9094744)"
         id="circle129" />
      <circle
         cx="4.2119298"
         cy="2.6619699"
         r="0.083439998"
         transform="rotate(-89.07419,4.2119295,2.6619718)"
         id="circle131" />
      <circle
         cx="1.95425"
         cy="1.69004"
         r="0.083109997"
         transform="rotate(-89.90803,1.954245,1.6900403)"
         id="circle133" />
      <circle
         cx="3.3529201"
         cy="2.8884101"
         r="0.083509997"
         transform="rotate(-89.80611,3.3529217,2.8884119)"
         id="circle135" />
      <circle
         cx="3.09987"
         cy="2.8275299"
         r="0.083020002"
         transform="rotate(-89.6649,3.0998657,2.8275343)"
         id="circle137" />
      <circle
         cx="3.84553"
         cy="1.45679"
         r="0.083250001"
         transform="rotate(-0.88451,3.8457226,1.4567759)"
         id="circle139" />
      <circle
         cx="3.24016"
         cy="3.0349"
         r="0.082989998"
         transform="rotate(-0.52594,3.2401479,3.0347241)"
         id="circle141" />
      <circle
         cx="3.6722901"
         cy="3.0416"
         r="0.083420001"
         transform="rotate(-89.58245,3.6722823,3.0416011)"
         id="circle143" />
      <circle
         cx="2.7868199"
         cy="1.82376"
         r="0.082960002"
         transform="rotate(-0.71445,2.7867298,1.8234276)"
         id="circle145" />
      <circle
         cx="2.5004499"
         cy="1.96329"
         r="0.083039999"
         transform="rotate(-1.14635,2.5005706,1.9634106)"
         id="circle147" />
      <circle
         cx="2.2500801"
         cy="3.0153601"
         r="0.08326"
         id="circle149" />
    </g>
    <g
       id="SvgjsG1737"
       featureKey="nameFeature-0"
       transform="matrix(1.0919279,0,0,1.0919279,136,16.250854)"
       style="fill:#53354a">
      <path
         d="M 5.36,39.92 C 2.4,39.92 0,37.52 0,34.56 V 16.8 c 0,-2.96 2.4,-5.36 5.36,-5.36 2.96,0 5.36,2.4 5.36,5.36 v 1.6 h -3.8 v -1.6 c 0,-0.84 -0.72,-1.56 -1.56,-1.56 -0.84,0 -1.56,0.72 -1.56,1.56 v 17.76 c 0,0.84 0.72,1.56 1.56,1.56 0.84,0 1.56,-0.72 1.56,-1.56 V 32 h 3.8 v 2.56 c 0,2.96 -2.4,5.36 -5.36,5.36 z M 20.347,11.44 h 3.8 v 28.52 h -3.8 V 24.88 h -3.4 v 15.08 h -3.8 V 11.44 h 3.8 v 9.68 h 3.4 z M 36.534,40 35.094,30.12 h -4.04 L 29.734,40 h -3.84 l 4.32,-28.6 h 5.16 l 5,28.6 z m -4.96,-13.68 h 2.96 l -1.52,-10.4 z m 21.627,13.76 h -4.08 l -2.2,-6.04 h -0.88 v 6.04 h -3.8 V 11.44 h 5.96 c 2.64,0 4.76,2.12 4.76,4.76 v 13.08 c 0,1.72 -0.88,3.2 -2.24,4.04 z m -7.16,-24.84 v 15 h 2.16 c 0.52,0 0.96,-0.44 0.96,-0.96 V 16.2 c 0,-0.52 -0.44,-0.96 -0.96,-0.96 z m 21.187,-3.88 h 6.68 v 28.56 h -3.76 V 17.32 L 66.588,40 h -1.48 l -0.36,-0.08 -0.32,0.08 h -1.48 l -3.52,-22.68 v 22.6 h -3.8 V 11.36 h 6.72 l 2.44,16.16 z m 22.894,28.56 c -2.96,0 -5.36,-2.4 -5.36,-5.36 V 16.8 c 0,-2.96 2.4,-5.36 5.36,-5.36 2.96,0 5.36,2.4 5.36,5.36 v 1.6 h -3.8 v -1.6 c 0,-0.84 -0.72,-1.56 -1.56,-1.56 -0.84,0 -1.56,0.72 -1.56,1.56 v 17.76 c 0,0.84 0.72,1.56 1.56,1.56 0.84,0 1.56,-0.72 1.56,-1.56 V 32 h 3.8 v 2.56 c 0,2.96 -2.4,5.36 -5.36,5.36 z m 13.187,0.12 c -3,0 -5.4,-2.44 -5.4,-5.4 V 16.68 c 0,-2.96 2.4,-5.36 5.4,-5.36 2.96,0 5.36,2.4 5.36,5.36 v 17.96 c 0,2.96 -2.4,5.4 -5.36,5.4 z m 0,-24.92 c -0.88,0 -1.56,0.72 -1.56,1.56 v 17.96 c 0,0.88 0.68,1.56 1.56,1.56 0.84,0 1.56,-0.68 1.56,-1.56 V 16.68 c 0,-0.84 -0.72,-1.56 -1.56,-1.56 z m 17.067,18.32 0.16,-22.16 h 3.84 l -0.24,28.88 h -5.96 l -3.24,-22.36 v 22.36 h -3.84 V 11.28 h 6.2 z m 11.907,6.8 c -3.04,0 -5.48,-2.48 -5.48,-5.48 V 30.4 h 3.88 v 4.36 c 0,0.88 0.72,1.6 1.6,1.6 0.88,0 1.56,-0.72 1.56,-1.6 v -3.8 l -7.04,-9.72 v -4.96 c 0,-3.04 2.44,-5.52 5.48,-5.52 3,0 5.44,2.48 5.44,5.52 v 4.32 h -3.88 v -4.32 c 0,-0.92 -0.68,-1.6 -1.56,-1.6 -0.88,0 -1.6,0.68 -1.6,1.6 v 3.64 l 7.04,9.72 v 5.12 c 0,3 -2.44,5.48 -5.44,5.48 z m 13.747,-0.16 c -3.24,0 -5.88,-2.64 -5.88,-5.88 V 11.48 h 3.8 V 34.2 c 0,1.16 0.92,2.12 2.08,2.12 1.16,0 2.08,-0.96 2.08,-2.12 V 11.48 h 3.8 V 34.2 c 0,3.24 -2.64,5.88 -5.88,5.88 z m 12.067,-3.84 h 5.52 V 40 h -9.28 V 11.28 h 3.76 z m 21.787,-24.88 v 3.84 h -4.76 v 24.84 h -3.84 V 15.2 h -5.24 v -3.84 z m 5.747,0 v 28.48 h -3.8 V 11.36 Z m 11.707,22.08 0.16,-22.16 h 3.84 l -0.24,28.88 h -5.96 l -3.24,-22.36 v 22.36 h -3.84 V 11.28 h 6.2 z m 12.227,6.88 h -0.88 c -2.8,0 -5.04,-2.24 -5.04,-5.04 V 16 c 0,-2.8 2.24,-5.08 5.04,-5.08 h 0.88 c 2.8,0 5.04,2.28 5.04,5.08 v 2.04 h -3.92 V 16 c 0,-0.68 -0.48,-1.16 -1.12,-1.16 h -0.88 c -0.6,0 -1.16,0.48 -1.16,1.16 v 19.28 c 0,0.6 0.56,1.16 1.16,1.16 h 0.88 c 0.64,0 1.12,-0.56 1.12,-1.16 v -10.4 h -2.24 V 21 h 6.16 v 14.28 c 0,2.8 -2.24,5.04 -5.04,5.04 z"
         id="path152"
         inkscape:connector-curvature="0" />
    </g>
    <g
       id="SvgjsG1738"
       featureKey="sloganFeature-0"
       transform="matrix(0.92780232,0,0,0.92780232,136,65.008423)"
       style="fill:#53354a">
      <path
         d="M 2.74,20.12 C 1.22,20.12 0,18.88 0,17.38 V 15.2 h 1.94 v 2.18 c 0,0.44 0.36,0.8 0.8,0.8 0.44,0 0.78,-0.36 0.78,-0.8 v -1.9 L 0,10.62 V 8.14 C 0,6.62 1.22,5.38 2.74,5.38 c 1.5,0 2.72,1.24 2.72,2.76 V 10.3 H 3.52 V 8.14 c 0,-0.46 -0.34,-0.8 -0.78,-0.8 -0.44,0 -0.8,0.34 -0.8,0.8 v 1.82 l 3.52,4.86 v 2.56 c 0,1.5 -1.22,2.74 -2.72,2.74 z m 15.6005,-0.1 c -1.5,0 -2.7,-1.22 -2.7,-2.7 V 8.34 c 0,-1.48 1.2,-2.68 2.7,-2.68 1.48,0 2.68,1.2 2.68,2.68 v 8.98 c 0,1.48 -1.2,2.7 -2.68,2.7 z m 0,-12.46 c -0.44,0 -0.78,0.36 -0.78,0.78 v 8.98 c 0,0.44 0.34,0.78 0.78,0.78 0.42,0 0.78,-0.34 0.78,-0.78 V 8.34 c 0,-0.42 -0.36,-0.78 -0.78,-0.78 z m 17.5605,3.06 v 1.88 h -2.82 v 7.46 h -1.88 V 5.72 h 4.66 v 1.9 h -2.78 v 3 z M 53.0015,5.68 V 7.6 h -2.38 v 12.42 h -1.92 V 7.6 h -2.62 V 5.68 Z M 71.022,5.72 h 1.92 L 71.082,20 h -1.98 l -1,-7.16 -0.94,7.16 h -1.98 l -2,-14.28 h 1.92 l 1.04,7.36 0.96,-7.36 h 1.92 l 1.04,7.36 z M 86.6825,20 l -0.72,-4.94 h -2.02 l -0.66,4.94 h -1.92 l 2.16,-14.3 h 2.58 l 2.5,14.3 z m -2.48,-6.84 h 1.48 l -0.76,-5.2 z m 19.7805,6.88 h -2.04 l -1.1,-3.02 h -0.44 v 3.02 h -1.9 V 5.72 h 2.98 c 1.32,0 2.38,1.06 2.38,2.38 v 6.54 c 0,0.86 -0.44,1.6 -1.12,2.02 z m -3.58,-12.42 v 7.5 h 1.08 c 0.26,0 0.48,-0.22 0.48,-0.48 V 8.1 c 0,-0.26 -0.22,-0.48 -0.48,-0.48 z m 18.4205,4.84 h -2.76 v 5.64 h 2.78 V 20 h -4.68 V 5.72 h 4.68 v 1.9 h -2.78 v 2.94 h 2.76 z m 25.881,7.56 h -2.5 V 5.76 h 2.5 c 1.7,0 3.06,1.38 3.06,3.08 v 8.1 c 0,0.82 -0.32,1.6 -0.9,2.18 -0.58,0.58 -1.34,0.9 -2.16,0.9 z m -0.6,-12.34 V 18.1 h 0.6 c 0.3,0 0.6,-0.12 0.82,-0.34 0.22,-0.22 0.34,-0.5 0.34,-0.82 v -8.1 c 0,-0.64 -0.52,-1.16 -1.16,-1.16 z m 18.5005,4.78 h -2.76 v 5.64 h 2.78 V 20 h -4.68 V 5.72 h 4.68 v 1.9 h -2.78 v 2.94 h 2.76 z m 12.0805,5.66 h 2.76 V 20 h -4.64 V 5.64 h 1.88 z M 189.526,5.68 v 14.24 h -1.9 V 5.68 Z M 203.6865,20 h -1.98 l -2,-14.28 h 1.92 l 1.04,7.36 0.96,-7.36 h 1.92 z m 16.5605,-7.54 h -2.76 v 5.64 h 2.78 V 20 h -4.68 V 5.72 h 4.68 v 1.9 h -2.78 v 2.94 h 2.76 z m 15.6805,7.58 h -2.04 l -1.1,-3.02 h -0.44 v 3.02 h -1.9 V 5.72 h 2.98 c 1.32,0 2.38,1.06 2.38,2.38 v 6.54 c 0,0.86 -0.44,1.6 -1.12,2.02 z m -3.58,-12.42 v 7.5 h 1.08 c 0.26,0 0.48,-0.22 0.48,-0.48 V 8.1 c 0,-0.26 -0.22,-0.48 -0.48,-0.48 z m 20.2205,-1.9 -2.68,8.68 V 20 h -1.94 v -5.62 l -2.46,-8.66 h 2 l 1.46,5.14 1.6,-5.14 z"
         id="path155"
         inkscape:connector-curvature="0" />
    </g>
  </g>
</svg>
